# xmcd
#
# Track frame offsets:
#	150
#	14920
#	30913
#	46252
#	61327
#	75297
#	89886
#	119491
#	149354
#	164747
#	179021
#	193922
#	208692
#
# Disc length: 3187 seconds
#
# Revision: 3
# Processed by: cddbd v1.5.1PL2 Copyright (c) Steve Scherf et al.
# Submitted via: audiograbber 1.83.01
#
DISCID=c10c710d
DTITLE=Naman Natavara - Natyasangit - 1
DYEAR=1900
DGENRE=
TTITLE0=Chhediyala Tara
TTITLE1=Kata rute kunala
TTITLE2=Jay gange bhagirathi
TTITLE3=Ugavala chandra
TTITLE4=Tarani navvasan
TTITLE5=Dhanya aanand din
TTITLE6=Nav sundari karu
TTITLE7=Priye Paha
TTITLE8=Jay Shankar Gangadhara
TTITLE9=Vikal Man Aaj Zurat
TTITLE10=Nabh Meghani Aakramile
TTITLE11=Daivya Kiti Avichari
TTITLE12=Mam Sukhachi Thev
EXTD=
EXTT0=
EXTT1=
EXTT2=
EXTT3=
EXTT4=
EXTT5=
EXTT6=
EXTT7=
EXTT8=
EXTT9=
EXTT10=
EXTT11=
EXTT12=
PLAYORDER=
